<?xml version="1.0" encoding="utf-8"?>
<!-- Generator: Adobe Illustrator 16.0.0, SVG Export Plug-In . SVG Version: 6.00 Build 0)  -->
<!DOCTYPE svg PUBLIC "-//W3C//DTD SVG 1.1//EN" "http://www.w3.org/Graphics/SVG/1.1/DTD/svg11.dtd">
<svg version="1.1" id="Layer_1" xmlns="http://www.w3.org/2000/svg" xmlns:xlink="http://www.w3.org/1999/xlink" x="0px" y="0px"
	 width="88.775px" height="13.945px" viewBox="0 0 88.775 13.945" enable-background="new 0 0 88.775 13.945" xml:space="preserve">
<line fill="none" stroke="#F95758" stroke-miterlimit="10" x1="6.007" y1="8.201" x2="36.007" y2="8.201"/>
<g enable-background="new    ">
	<path fill="#F95758" d="M40.41,11.668l1.822-8.566h1.377l-1.822,8.566H40.41z"/>
	<path fill="#F95758" d="M50.441,5.451c0,0.969-0.331,1.713-0.993,2.232s-1.585,0.779-2.769,0.779h-0.645l-0.674,3.205h-1.389
		l1.811-8.566h1.957c0.895,0,1.568,0.196,2.021,0.589S50.441,4.67,50.441,5.451z M46.287,7.285h0.551
		c0.695,0,1.233-0.155,1.614-0.466s0.571-0.751,0.571-1.321c0-0.426-0.114-0.736-0.343-0.932s-0.579-0.293-1.052-0.293h-0.697
		L46.287,7.285z"/>
	<path fill="#F95758" d="M55.89,9.16c0,0.82-0.282,1.463-0.847,1.928s-1.343,0.697-2.335,0.697c-0.82,0-1.5-0.146-2.039-0.439
		v-1.312c0.676,0.379,1.359,0.568,2.051,0.568c0.535,0,0.957-0.114,1.266-0.343s0.463-0.546,0.463-0.952
		c0-0.27-0.08-0.509-0.24-0.718s-0.496-0.476-1.008-0.8c-0.41-0.262-0.713-0.5-0.908-0.715s-0.345-0.45-0.448-0.706
		s-0.155-0.538-0.155-0.847c0-0.5,0.12-0.943,0.36-1.33s0.58-0.686,1.02-0.896s0.935-0.316,1.485-0.316
		c0.801,0,1.545,0.18,2.232,0.539l-0.504,1.119c-0.629-0.305-1.205-0.457-1.729-0.457c-0.426,0-0.768,0.114-1.025,0.343
		s-0.387,0.526-0.387,0.894c0,0.184,0.029,0.345,0.088,0.483s0.149,0.268,0.272,0.387s0.386,0.306,0.788,0.56
		c0.605,0.379,1.023,0.745,1.254,1.099S55.89,8.703,55.89,9.16z"/>
	<path fill="#F95758" d="M64.949,3.102l-1.184,5.602c-0.219,1.043-0.625,1.817-1.219,2.323s-1.381,0.759-2.361,0.759
		c-0.848,0-1.503-0.207-1.966-0.621s-0.694-1.01-0.694-1.787c0-0.324,0.039-0.656,0.117-0.996l1.131-5.279h1.389l-1.125,5.303
		c-0.082,0.344-0.123,0.652-0.123,0.926c0,0.398,0.116,0.708,0.349,0.929s0.585,0.331,1.058,0.331c0.566,0,1.016-0.157,1.348-0.472
		s0.574-0.825,0.727-1.532l1.166-5.484H64.949z"/>
	<path fill="#F95758" d="M68.623,11.668l-0.674-7.113h-0.035c-0.035,0.461-0.143,1.125-0.322,1.992l-1.078,5.121H65.23l1.811-8.566
		h1.893l0.639,6.732h0.035l3.551-6.732h2.016l-1.787,8.566h-1.33l1.066-5.109c0.152-0.727,0.32-1.395,0.504-2.004h-0.035
		l-3.768,7.113H68.623z"/>
</g>
</svg>
