<?xml version="1.0" encoding="utf-8"?>
<!-- Generator: Adobe Illustrator 16.0.0, SVG Export Plug-In . SVG Version: 6.00 Build 0)  -->
<!DOCTYPE svg PUBLIC "-//W3C//DTD SVG 1.1//EN" "http://www.w3.org/Graphics/SVG/1.1/DTD/svg11.dtd">
<svg version="1.1" id="Layer_1" xmlns="http://www.w3.org/2000/svg" xmlns:xlink="http://www.w3.org/1999/xlink" x="0px" y="0px"
	 width="200px" height="266.667px" viewBox="0 0 200 266.667" enable-background="new 0 0 200 266.667" xml:space="preserve">
<path fill="#F95758" d="M121.183,57.833c0,7.709,6.272,13.981,13.981,13.981s13.981-6.272,13.981-13.981
	s-6.272-13.981-13.981-13.981S121.183,50.124,121.183,57.833z M143.146,57.833c0,4.401-3.58,7.981-7.981,7.981
	s-7.981-3.58-7.981-7.981s3.58-7.981,7.981-7.981S143.146,53.431,143.146,57.833z"/>
<path fill="#F95758" d="M79.168,57.833c0-7.709-6.272-13.981-13.981-13.981s-13.982,6.272-13.982,13.981s6.272,13.981,13.982,13.981
	S79.168,65.542,79.168,57.833z M65.187,65.814c-4.401,0-7.982-3.58-7.982-7.981s3.581-7.981,7.982-7.981
	c4.401,0,7.981,3.58,7.981,7.981S69.588,65.814,65.187,65.814z"/>
<path fill="#F95758" d="M129.715,93.365c1.777,0.271,3.597,0.413,5.449,0.413c19.82,0,35.945-16.125,35.945-35.945
	s-16.125-35.945-35.945-35.945c-5.896,0-11.459,1.436-16.373,3.962c-3.678-6.23-8.998-12.024-15.951-17.324l-1.818-1.387
	l-1.818,1.387c-7.21,5.496-12.673,11.521-16.36,18.016c-5.219-2.956-11.241-4.653-17.656-4.653
	c-19.82,0-35.945,16.125-35.945,35.945s16.125,35.945,35.945,35.945c2.043,0,4.043-0.181,5.994-0.509
	c-8.969,6.313-19.975,15.493-30.263,27.984C20.368,146.206-0.82,189.5,14.945,254.051l0.698,2.857l2.871-0.642
	c0.937-0.209,23.174-5.402,43.72-29.387c0.097-0.113,0.19-0.231,0.287-0.346c15.257,23.621,37.014,26.807,38.108,26.951l0.393,0.052
	l0.393-0.052c1.081-0.143,22.326-3.258,37.55-26.107c20.424,23.55,42.353,28.682,43.282,28.889l2.871,0.642l0.697-2.857
	c15.766-64.552-5.423-107.846-25.974-132.798C149.604,108.825,138.659,99.675,129.715,93.365z M181.96,243.653L115.856,91.617
	c9.087,5.292,25.066,16.105,39.354,33.451c7.136,8.665,13.004,17.839,17.615,27.5h-11.889v6h14.562
	c1.505,3.626,2.839,7.318,4.002,11.075h-6.833v6h8.524C186.535,196.46,186.802,219.179,181.96,243.653z M101.03,247.473
	c-2.906-0.528-21.607-4.696-34.518-25.912c9.842-13.022,17.295-28.717,22.192-46.757c6.927-25.522,8.728-55.851,5.353-90.145
	l-0.407-4.132l-0.976,0.433c3.581-4.249,6.191-9.336,7.502-14.921c1.279,5.455,3.795,10.439,7.248,14.628l-0.314-0.14l-0.406,4.132
	c-3.376,34.294-1.575,64.622,5.353,90.145c5.016,18.477,12.72,34.484,22.918,47.69C122.117,243.008,104.088,246.945,101.03,247.473z
	 M19.57,175.643h8.522v-6h-6.829c1.163-3.757,2.497-7.449,4.002-11.075h14.558v-6H27.935c4.576-9.589,10.392-18.698,17.456-27.307
	c14.295-17.42,30.377-28.31,39.507-33.634L18.8,243.653C13.959,219.181,14.226,196.461,19.57,175.643z M113.699,29.017
	c-6.678,4.987-11.562,12.241-13.523,20.608c-1.847-7.872-6.281-14.756-12.362-19.696c2.982-5.392,7.378-10.47,13.208-15.202
	C106.52,19.191,110.733,23.965,113.699,29.017z M165.109,57.833c0,16.512-13.434,29.945-29.945,29.945s-29.945-13.434-29.945-29.945
	s13.434-29.945,29.945-29.945S165.109,41.321,165.109,57.833z M95.132,57.833c0,16.512-13.433,29.945-29.945,29.945
	S35.242,74.344,35.242,57.833s13.434-29.945,29.945-29.945S95.132,41.321,95.132,57.833z M23.304,248.34L89.046,97.134
	c4.344,67.954-14.208,105.646-31.097,125.523C44.962,237.944,31.049,245.212,23.304,248.34z M111.713,97.133l65.743,151.207
	c-7.744-3.128-21.658-10.396-34.646-25.683C125.921,202.78,107.366,165.093,111.713,97.133z M17.37,172.643L17.37,172.643
	L17.37,172.643z M17.86,253.339L17.86,253.339L17.86,253.339z M182.899,253.339L182.899,253.339L182.899,253.339z M177.394,155.568
	L177.394,155.568L177.394,155.568z"/>
<polygon fill="#F95758" points="108.043,198.436 108.043,192.436 92.717,192.436 92.717,195.436 92.717,198.436 "/>
<polygon fill="#F95758" points="82.734,218.065 82.734,221.065 118.026,221.065 118.026,215.065 82.734,215.065 "/>
</svg>
