<?xml version="1.0" encoding="utf-8"?>
<!-- Generator: Adobe Illustrator 16.0.0, SVG Export Plug-In . SVG Version: 6.00 Build 0)  -->
<!DOCTYPE svg PUBLIC "-//W3C//DTD SVG 1.1//EN" "http://www.w3.org/Graphics/SVG/1.1/DTD/svg11.dtd">
<svg version="1.1" id="Layer_1" xmlns="http://www.w3.org/2000/svg" xmlns:xlink="http://www.w3.org/1999/xlink" x="0px" y="0px"
	 width="80.612px" height="13.946px" viewBox="0 0 80.612 13.946" enable-background="new 0 0 80.612 13.946" xml:space="preserve">
<g>
	<rect x="3.007" y="6.701" fill="#F95758" width="30" height="1"/>
</g>
<g>
	<path fill="#F95758" d="M37.417,11.368l1.811-8.566h1.389l-1.559,7.365h3.158l-0.252,1.201H37.417z"/>
	<path fill="#F95758" d="M51.286,5.965c0,1.09-0.186,2.061-0.557,2.912s-0.882,1.499-1.532,1.942s-1.405,0.665-2.265,0.665
		c-1.012,0-1.795-0.292-2.35-0.876s-0.832-1.392-0.832-2.423c0-1.043,0.192-1.995,0.577-2.856s0.911-1.521,1.579-1.978
		s1.426-0.686,2.273-0.686c0.98,0,1.743,0.291,2.288,0.873S51.286,4.93,51.286,5.965z M48.069,3.868
		c-0.539,0-1.027,0.188-1.465,0.562s-0.78,0.896-1.028,1.562s-0.372,1.394-0.372,2.183c0,0.676,0.159,1.197,0.478,1.564
		s0.763,0.551,1.333,0.551c0.539,0,1.024-0.187,1.456-0.56s0.768-0.891,1.008-1.553s0.36-1.396,0.36-2.2
		c0-0.664-0.154-1.182-0.463-1.553S48.632,3.868,48.069,3.868z"/>
	<path fill="#F95758" d="M54.181,7.946l-0.721,3.422h-1.389l1.811-8.566h1.98c0.871,0,1.539,0.185,2.004,0.554
		s0.697,0.937,0.697,1.702c0,0.645-0.169,1.188-0.507,1.632s-0.841,0.767-1.509,0.97l1.459,3.709h-1.523l-1.213-3.422H54.181z
		 M54.433,6.786h0.721c0.664,0,1.16-0.146,1.488-0.439s0.492-0.695,0.492-1.207c0-0.41-0.115-0.705-0.346-0.885
		s-0.588-0.27-1.072-0.27h-0.697L54.433,6.786z"/>
	<path fill="#F95758" d="M63.685,11.368h-4.547l1.811-8.566h4.547l-0.252,1.201h-3.158l-0.492,2.314h2.941l-0.24,1.189h-2.953
		l-0.562,2.672h3.158L63.685,11.368z"/>
	<path fill="#F95758" d="M68.829,11.368l-0.674-7.113H68.12c-0.035,0.461-0.143,1.125-0.322,1.992l-1.078,5.121h-1.283l1.811-8.566
		h1.893l0.639,6.732h0.035l3.551-6.732h2.016l-1.787,8.566h-1.33l1.066-5.109c0.152-0.727,0.32-1.395,0.504-2.004h-0.035
		l-3.768,7.113H68.829z"/>
</g>
</svg>
