<?xml version="1.0" encoding="utf-8"?>
<!-- Generator: Adobe Illustrator 16.0.0, SVG Export Plug-In . SVG Version: 6.00 Build 0)  -->
<!DOCTYPE svg PUBLIC "-//W3C//DTD SVG 1.1//EN" "http://www.w3.org/Graphics/SVG/1.1/DTD/svg11.dtd">
<svg version="1.1" id="Layer_1" xmlns="http://www.w3.org/2000/svg" xmlns:xlink="http://www.w3.org/1999/xlink" x="0px" y="0px"
	 width="88.775px" height="13.945px" viewBox="0 0 88.775 13.945" enable-background="new 0 0 88.775 13.945" xml:space="preserve">
<line fill="none" stroke="#F95758" stroke-miterlimit="10" x1="46.007" y1="8.201" x2="84.007" y2="8.201"/>
<g enable-background="new    ">
	<path fill="#F95758" d="M11.681,6.436c0,1.059-0.195,1.982-0.586,2.771s-0.959,1.396-1.705,1.822s-1.623,0.639-2.631,0.639H4.41
		L6.22,3.102h2.162c1.059,0,1.873,0.283,2.443,0.85S11.681,5.346,11.681,6.436z M6.83,10.49c0.691,0,1.295-0.168,1.811-0.504
		s0.911-0.809,1.187-1.418s0.413-1.305,0.413-2.086c0-0.719-0.172-1.267-0.516-1.644s-0.844-0.565-1.5-0.565H7.369l-1.33,6.217H6.83
		z"/>
	<path fill="#F95758" d="M20.377,6.266c0,1.09-0.186,2.061-0.557,2.912s-0.882,1.499-1.532,1.942s-1.405,0.665-2.265,0.665
		c-1.012,0-1.795-0.292-2.35-0.876s-0.832-1.392-0.832-2.423c0-1.043,0.192-1.995,0.577-2.856s0.911-1.521,1.579-1.978
		s1.426-0.686,2.273-0.686c0.98,0,1.743,0.291,2.288,0.873S20.377,5.231,20.377,6.266z M17.16,4.168
		c-0.539,0-1.027,0.188-1.465,0.562s-0.78,0.896-1.028,1.562s-0.372,1.394-0.372,2.183c0,0.676,0.159,1.197,0.478,1.564
		s0.763,0.551,1.333,0.551c0.539,0,1.024-0.187,1.456-0.56s0.768-0.891,1.008-1.553s0.36-1.396,0.36-2.2
		c0-0.664-0.154-1.182-0.463-1.553S17.722,4.168,17.16,4.168z"/>
	<path fill="#F95758" d="M21.162,11.668l1.811-8.566h1.389l-1.559,7.365h3.158l-0.252,1.201H21.162z"/>
	<path fill="#F95758" d="M35.031,6.266c0,1.09-0.186,2.061-0.557,2.912s-0.882,1.499-1.532,1.942s-1.405,0.665-2.265,0.665
		c-1.012,0-1.795-0.292-2.35-0.876s-0.832-1.392-0.832-2.423c0-1.043,0.192-1.995,0.577-2.856s0.911-1.521,1.579-1.978
		s1.426-0.686,2.273-0.686c0.98,0,1.743,0.291,2.288,0.873S35.031,5.231,35.031,6.266z M31.814,4.168
		c-0.539,0-1.027,0.188-1.465,0.562s-0.78,0.896-1.028,1.562s-0.372,1.394-0.372,2.183c0,0.676,0.159,1.197,0.478,1.564
		s0.763,0.551,1.333,0.551c0.539,0,1.024-0.187,1.456-0.56s0.768-0.891,1.008-1.553s0.36-1.396,0.36-2.2
		c0-0.664-0.154-1.182-0.463-1.553S32.377,4.168,31.814,4.168z"/>
	<path fill="#F95758" d="M37.926,8.246l-0.721,3.422h-1.389l1.811-8.566h1.98c0.871,0,1.539,0.185,2.004,0.554
		s0.697,0.937,0.697,1.702c0,0.645-0.169,1.188-0.507,1.632s-0.841,0.767-1.509,0.97l1.459,3.709h-1.523l-1.213-3.422H37.926z
		 M38.177,7.086h0.721c0.664,0,1.16-0.146,1.488-0.439s0.492-0.695,0.492-1.207c0-0.41-0.115-0.705-0.346-0.885
		s-0.588-0.27-1.072-0.27h-0.697L38.177,7.086z"/>
</g>
</svg>
